<mxfile host="65bd71144e">
    <diagram id="jF07VsLASv7SkupmImgH" name="Page-1">
        <mxGraphModel dx="437" dy="304" grid="1" gridSize="10" guides="1" tooltips="1" connect="1" arrows="1" fold="1" page="1" pageScale="1" pageWidth="850" pageHeight="1100" math="0" shadow="0">
            <root>
                <mxCell id="0"/>
                <mxCell id="1" parent="0"/>
                <mxCell id="8" value="" style="edgeStyle=none;html=1;entryX=0.5;entryY=0;entryDx=0;entryDy=0;sketch=1;curveFitting=1;jiggle=2;strokeWidth=2;fontSize=13;strokeColor=#7D7D7D;" parent="1" source="2" target="3" edge="1">
                    <mxGeometry relative="1" as="geometry"/>
                </mxCell>
                <mxCell id="2" value="&lt;font style=&quot;font-size: 15px; color: rgb(255, 255, 255);&quot;&gt;&lt;b style=&quot;&quot;&gt;eROSITA raw&amp;nbsp;&lt;/b&gt;&lt;/font&gt;&lt;div&gt;&lt;font style=&quot;font-size: 15px; color: rgb(255, 255, 255);&quot;&gt;&lt;b style=&quot;&quot;&gt;Event files&lt;/b&gt;&lt;/font&gt;&lt;/div&gt;" style="shape=parallelogram;perimeter=parallelogramPerimeter;whiteSpace=wrap;html=1;fixedSize=1;sketch=1;curveFitting=1;jiggle=2;fillColor=#000000;fontColor=light-dark(#FFFFFF,#121212);strokeColor=#2D7600;strokeWidth=2;fontSize=13;rounded=1;arcSize=33;" parent="1" vertex="1">
                    <mxGeometry x="320" y="30" width="160" height="60" as="geometry"/>
                </mxCell>
                <mxCell id="5" value="" style="edgeStyle=none;html=1;sketch=1;curveFitting=1;jiggle=2;strokeWidth=2;fontSize=13;strokeColor=#7D7D7D;" parent="1" source="3" target="4" edge="1">
                    <mxGeometry relative="1" as="geometry"/>
                </mxCell>
                <mxCell id="3" value="&lt;b&gt;&lt;font style=&quot;font-size: 14px;&quot;&gt;Data Reduction:&lt;/font&gt;&lt;/b&gt;&lt;div&gt;Flare filtering applied to all tiles&lt;/div&gt;" style="rounded=0;whiteSpace=wrap;html=1;sketch=1;curveFitting=1;jiggle=2;fillColor=#000000;fontColor=light-dark(#FFFFFF,#121212);strokeColor=#2D7600;strokeWidth=2;fontSize=13;" parent="1" vertex="1">
                    <mxGeometry x="340" y="120" width="120" height="60" as="geometry"/>
                </mxCell>
                <mxCell id="13" style="edgeStyle=none;html=1;exitX=0.75;exitY=1;exitDx=0;exitDy=0;entryX=0.5;entryY=0;entryDx=0;entryDy=0;sketch=1;curveFitting=1;jiggle=2;strokeWidth=2;fontSize=13;strokeColor=#7D7D7D;" parent="1" source="4" target="11" edge="1">
                    <mxGeometry relative="1" as="geometry">
                        <Array as="points">
                            <mxPoint x="430" y="280"/>
                            <mxPoint x="520" y="280"/>
                        </Array>
                    </mxGeometry>
                </mxCell>
                <mxCell id="14" style="edgeStyle=none;html=1;exitX=0.25;exitY=1;exitDx=0;exitDy=0;entryX=0.5;entryY=0;entryDx=0;entryDy=0;sketch=1;curveFitting=1;jiggle=2;strokeWidth=2;fontSize=13;strokeColor=#7D7D7D;" parent="1" source="4" target="9" edge="1">
                    <mxGeometry relative="1" as="geometry">
                        <Array as="points">
                            <mxPoint x="370" y="280"/>
                            <mxPoint x="270" y="280"/>
                        </Array>
                    </mxGeometry>
                </mxCell>
                <mxCell id="4" value="&lt;font&gt;&lt;b&gt;Merging event files&lt;/b&gt;&amp;nbsp;&lt;/font&gt;&lt;span style=&quot;background-color: transparent;&quot;&gt;of all the tiles&lt;/span&gt;" style="whiteSpace=wrap;html=1;rounded=0;sketch=1;curveFitting=1;jiggle=2;fillColor=#000000;fontColor=light-dark(#FFFFFF,#121212);strokeColor=#2D7600;strokeWidth=2;fontSize=13;" parent="1" vertex="1">
                    <mxGeometry x="340" y="210" width="120" height="50" as="geometry"/>
                </mxCell>
                <mxCell id="16" value="" style="edgeStyle=none;html=1;sketch=1;curveFitting=1;jiggle=2;strokeWidth=2;fontSize=13;strokeColor=#7D7D7D;" parent="1" source="9" target="15" edge="1">
                    <mxGeometry relative="1" as="geometry"/>
                </mxCell>
                <mxCell id="9" value="&lt;font style=&quot;font-size: 15px;&quot;&gt;&lt;b style=&quot;&quot;&gt;Imaging &amp;amp;&amp;nbsp;&lt;/b&gt;&lt;/font&gt;&lt;div&gt;&lt;font style=&quot;font-size: 15px;&quot;&gt;&lt;b style=&quot;&quot;&gt;Source detection&lt;/b&gt;&lt;/font&gt;&lt;/div&gt;" style="whiteSpace=wrap;html=1;rounded=1;arcSize=50;sketch=1;curveFitting=1;jiggle=2;fillColor=#000000;fontColor=light-dark(#FFFFFF,#121212);strokeColor=#001DBC;strokeWidth=2;gradientColor=none;fillStyle=auto;fontSize=13;" parent="1" vertex="1">
                    <mxGeometry x="195" y="310" width="150" height="50" as="geometry"/>
                </mxCell>
                <mxCell id="24" value="" style="edgeStyle=none;html=1;sketch=1;curveFitting=1;jiggle=2;strokeWidth=2;fontSize=13;strokeColor=#7D7D7D;" parent="1" source="11" target="23" edge="1">
                    <mxGeometry relative="1" as="geometry"/>
                </mxCell>
                <mxCell id="11" value="&lt;font style=&quot;font-size: 15px;&quot;&gt;&lt;b style=&quot;&quot;&gt;Spectroscopy&lt;/b&gt;&lt;/font&gt;" style="whiteSpace=wrap;html=1;rounded=1;arcSize=50;sketch=1;curveFitting=1;jiggle=2;fillColor=#000000;fontColor=light-dark(#FFFFFF,#121212);strokeColor=#B20000;strokeWidth=2;fontSize=13;" parent="1" vertex="1">
                    <mxGeometry x="460" y="315" width="120" height="40" as="geometry"/>
                </mxCell>
                <mxCell id="18" value="" style="edgeStyle=none;html=1;sketch=1;curveFitting=1;jiggle=2;strokeWidth=2;fontSize=13;strokeColor=#7D7D7D;" parent="1" source="15" target="17" edge="1">
                    <mxGeometry relative="1" as="geometry"/>
                </mxCell>
                <mxCell id="15" value="&lt;b&gt;Image and exposure&amp;nbsp;&lt;/b&gt;&lt;div&gt;&lt;b&gt;map&lt;/b&gt; creation in a particular band&lt;/div&gt;" style="whiteSpace=wrap;html=1;rounded=1;arcSize=0;sketch=1;curveFitting=1;jiggle=2;fillColor=#000000;fontColor=light-dark(#FFFFFF,#121212);strokeColor=#001DBC;strokeWidth=2;fontSize=13;" parent="1" vertex="1">
                    <mxGeometry x="190" y="390" width="160" height="60" as="geometry"/>
                </mxCell>
                <mxCell id="22" value="" style="edgeStyle=none;html=1;sketch=1;curveFitting=1;jiggle=2;strokeWidth=2;fontSize=13;strokeColor=#7D7D7D;" parent="1" source="17" target="20" edge="1">
                    <mxGeometry relative="1" as="geometry"/>
                </mxCell>
                <mxCell id="17" value="&lt;font&gt;&lt;b&gt;Source detection&lt;/b&gt; using eSASS pipeline&lt;/font&gt;" style="whiteSpace=wrap;html=1;rounded=1;arcSize=0;sketch=1;curveFitting=1;jiggle=2;fillColor=#000000;fontColor=light-dark(#FFFFFF,#121212);strokeColor=#001DBC;strokeWidth=2;fontSize=13;" parent="1" vertex="1">
                    <mxGeometry x="190" y="480" width="160" height="60" as="geometry"/>
                </mxCell>
                <mxCell id="21" value="" style="edgeStyle=none;html=1;sketch=1;curveFitting=1;jiggle=2;strokeWidth=2;fontSize=13;strokeColor=#7D7D7D;" parent="1" source="19" target="20" edge="1">
                    <mxGeometry relative="1" as="geometry"/>
                </mxCell>
                <mxCell id="19" value="&lt;font style=&quot;&quot;&gt;&lt;font style=&quot;font-size: 14px;&quot;&gt;&lt;b&gt;OPTIONAL:&lt;/b&gt;&lt;/font&gt;&amp;nbsp;&lt;/font&gt;&lt;div&gt;&lt;font style=&quot;&quot;&gt;eRASS: 1&amp;nbsp;&lt;/font&gt;&lt;/div&gt;&lt;div&gt;&lt;font style=&quot;&quot;&gt;source catalog&lt;/font&gt;&lt;/div&gt;" style="shape=parallelogram;perimeter=parallelogramPerimeter;whiteSpace=wrap;html=1;fixedSize=1;sketch=1;curveFitting=1;jiggle=2;fillColor=#000000;fontColor=light-dark(#FFFFFF,#121212);strokeColor=#BD7000;strokeWidth=2;fontSize=13;size=30;rounded=1;" parent="1" vertex="1">
                    <mxGeometry x="20" y="580" width="150" height="60" as="geometry"/>
                </mxCell>
                <mxCell id="26" value="" style="edgeStyle=none;html=1;sketch=1;curveFitting=1;jiggle=2;strokeWidth=2;fontSize=13;strokeColor=#7D7D7D;" parent="1" source="20" target="25" edge="1">
                    <mxGeometry relative="1" as="geometry"/>
                </mxCell>
                <mxCell id="32" style="edgeStyle=none;html=1;entryX=0;entryY=0.5;entryDx=0;entryDy=0;exitX=1;exitY=0.5;exitDx=0;exitDy=0;sketch=1;curveFitting=1;jiggle=2;strokeWidth=2;fontSize=13;strokeColor=#7D7D7D;" parent="1" source="20" target="23" edge="1">
                    <mxGeometry relative="1" as="geometry">
                        <Array as="points">
                            <mxPoint x="400" y="610"/>
                            <mxPoint x="400" y="420"/>
                        </Array>
                    </mxGeometry>
                </mxCell>
                <mxCell id="20" value="&lt;font&gt;Creation of &lt;b&gt;point source&lt;/b&gt; cheese-mask and ds9 region files&lt;/font&gt;" style="whiteSpace=wrap;html=1;sketch=1;curveFitting=1;jiggle=2;fillColor=#000000;fontColor=light-dark(#FFFFFF,#121212);strokeColor=#001DBC;strokeWidth=2;fontSize=13;" parent="1" vertex="1">
                    <mxGeometry x="190" y="580" width="160" height="60" as="geometry"/>
                </mxCell>
                <mxCell id="34" value="" style="edgeStyle=none;html=1;sketch=1;curveFitting=1;jiggle=2;strokeWidth=2;fontSize=13;strokeColor=#7D7D7D;" parent="1" source="23" target="33" edge="1">
                    <mxGeometry relative="1" as="geometry"/>
                </mxCell>
                <mxCell id="23" value="&lt;b&gt;Extracting spectrum&lt;/b&gt;&amp;nbsp;&lt;div&gt;from the source and background&lt;/div&gt;" style="whiteSpace=wrap;html=1;rounded=1;arcSize=0;sketch=1;curveFitting=1;jiggle=2;fillColor=#000000;fontColor=light-dark(#FFFFFF,#121212);strokeColor=#B20000;strokeWidth=2;fontSize=13;" parent="1" vertex="1">
                    <mxGeometry x="450" y="390" width="140" height="60" as="geometry"/>
                </mxCell>
                <mxCell id="25" value="&lt;b&gt;Adaptive smoothing&lt;/b&gt; by masking out point sources" style="whiteSpace=wrap;html=1;sketch=1;curveFitting=1;jiggle=2;fillColor=#000000;fontColor=light-dark(#FFFFFF,#121212);strokeColor=#001DBC;strokeWidth=2;fontSize=13;" parent="1" vertex="1">
                    <mxGeometry x="190" y="670" width="160" height="60" as="geometry"/>
                </mxCell>
                <mxCell id="31" value="" style="edgeStyle=none;html=1;sketch=1;curveFitting=1;jiggle=2;strokeWidth=2;fontSize=13;strokeColor=#7D7D7D;" parent="1" source="29" target="23" edge="1">
                    <mxGeometry relative="1" as="geometry"/>
                </mxCell>
                <mxCell id="29" value="&lt;font style=&quot;&quot;&gt;User defined regions for&amp;nbsp;&lt;/font&gt;&lt;div&gt;&lt;font style=&quot;&quot;&gt;source and background&lt;/font&gt;&lt;/div&gt;" style="shape=parallelogram;perimeter=parallelogramPerimeter;whiteSpace=wrap;html=1;fixedSize=1;rounded=1;arcSize=24;sketch=1;curveFitting=1;jiggle=2;fillColor=#000000;fontColor=light-dark(#FFFFFF,#121212);strokeColor=#BD7000;strokeWidth=2;fontSize=13;" parent="1" vertex="1">
                    <mxGeometry x="610" y="390" width="180" height="60" as="geometry"/>
                </mxCell>
                <mxCell id="33" value="&lt;font&gt;Spectrum &lt;b&gt;modelling&amp;nbsp;&lt;/b&gt;&lt;/font&gt;&lt;div&gt;&lt;font&gt;&lt;b&gt;and fitting&lt;/b&gt;&lt;/font&gt;&lt;/div&gt;" style="whiteSpace=wrap;html=1;rounded=1;arcSize=0;sketch=1;curveFitting=1;jiggle=2;fillColor=#000000;fontColor=light-dark(#FFFFFF,#121212);strokeColor=#B20000;strokeWidth=2;fontSize=13;" parent="1" vertex="1">
                    <mxGeometry x="450" y="480" width="140" height="60" as="geometry"/>
                </mxCell>
            </root>
        </mxGraphModel>
    </diagram>
</mxfile>